<?xml version="1.0" standalone="no"?><!DOCTYPE svg PUBLIC "-//W3C//DTD SVG 1.1//EN" "http://www.w3.org/Graphics/SVG/1.1/DTD/svg11.dtd"><svg t="1641371086118" class="icon" viewBox="0 0 1024 1024" version="1.1" xmlns="http://www.w3.org/2000/svg" p-id="5612" xmlns:xlink="http://www.w3.org/1999/xlink" width="200" height="200"><defs><style type="text/css"></style></defs><path d="M845.451191 508.231202c0 91.150853 0.063608 182.333509-0.031804 273.484362-0.063608 79.574122-55.784576 136.66267-135.29509 136.980712-131.955648 0.572476-263.9431 0.540671-395.898748 0-79.319688-0.318042-135.644936-57.438395-135.740349-136.789887-0.222629-185.51393-0.063608-370.996056-0.063608-556.509986 0-10.050129-1.081343-20.831755 10.431779-26.111252 11.067863-5.088673 18.764481 1.494798 26.938162 7.919247C241.839178 227.71811 265.215269 252.175544 298.323446 262.384694c16.315557 5.025064 32.694723 8.555331 49.805386 8.523527 109.183837-0.031804 218.367674 0 327.551511-0.031804 41.758922 0 77.125198-15.902103 108.007081-43.221915 8.714352-7.696618 17.810355-14.947977 26.747337-22.421965 7.219555-6.074603 15.393235-10.749821 24.584651-6.074603 8.777961 4.484393 10.686213 12.944312 10.654409 22.835419-0.349846 95.44442-0.222629 190.857036-0.22263 286.237849z" fill="#0F293D" p-id="5613"></path><path d="M202.338355 220.371339c11.544927 9.191415 23.248874 18.192005 34.634779 27.60605 33.044569 27.351617 71.082399 40.8366 113.859055 40.900208 107.498214 0.127217 215.028232-0.254434 322.526447 0.159021 53.01761 0.190825 95.635246-22.676398 133.641271-57.056744 5.724757-5.184085 11.990185-9.732087 18.319222-14.82076 3.816505 5.979191 2.258099 11.322297 2.258099 16.315558 0.095413 181.12495 0.095413 362.249899 0.031804 543.374848 0 6.297233-0.890518 12.594465-1.399385 18.923502-11.576731 45.130167-70.923378 78.492779-117.898189 78.206541-82.627326-0.508867-165.222847-0.127217-247.850173-0.127217-47.674504 0-95.349008 0.667888-142.991707-0.190825-42.935677-0.763301-79.415101-16.697208-106.703109-50.82312-8.841569-11.036059-12.880703-23.725937-12.848899-38.228655 0.222629-183.255831 0.095413-366.479858 0.349846-549.735689 0-4.738827-4.102742-11.672143 4.070939-14.502718z" fill="#FFFFFF" p-id="5614"></path><path d="M202.338355 220.371339c-5.088673 5.438519-2.735162 12.149206-2.735162 18.22381-0.127217 178.008137 0.445259 356.016275-0.667888 534.024412-0.159021 28.242134 11.831164 47.865329 31.168121 64.21269 25.347952 21.436034 55.307513 32.21766 88.956362 32.185856 128.202752-0.127217 256.437308-0.063608 384.64006-0.031804 52.731372 0.031804 91.914153-23.248874 118.597882-68.379041 1.049539-1.749231 2.607945-3.212225 3.943721-4.83424-0.890518 56.897723-52.41333 104.731248-113.954468 104.858465-133.48225 0.254434-266.9645 0.127217-400.446749-0.031804-7.346771 0-14.82076-0.795105-22.040315-2.226294-55.561947-11.131472-93.281734-55.81638-93.345342-112.205237-0.286238-185.927385-0.127217-371.822965 0.286237-557.750349-0.031804-1.781036-7.219555-13.453179 5.597541-8.046464z" fill="#E5E7EA" p-id="5615"></path><path d="M380.473709 636.847408c-79.796751 0.095413-146.331149-62.940522-151.674256-145.440631-0.954126-14.82076 10.050129-25.220735 26.302078-24.203 30.086778 1.876448 57.62922 12.308227 83.963102 26.302078 24.457434 12.976116 46.465944 29.355282 66.725223 48.183371 12.785291 11.894773 25.538777 23.757741 39.532627 34.348541 15.679473 11.894773 15.870298 27.510638 0.381651 39.691649-18.446439 14.502718-39.596236 22.00851-65.230425 21.117992zM638.278597 637.101842c-20.386496 0.095413-41.695313-6.742492-59.950927-21.722272-14.534522-11.926577-14.852564-24.457434-0.763301-36.82927 33.267199-29.228065 64.085474-61.477529 103.586297-83.008976 27.192596-14.82076 55.530143-25.825015 86.634656-28.178526 18.923502-1.431189 28.305743 7.155946 26.683728 26.111252-7.951051 93.663385-79.128863 141.719539-156.190453 143.627792z" fill="#113046" p-id="5616"></path><path d="M514.464826 700.61484c-10.145542-0.922322-17.937572-4.961456-24.80728-10.877038-3.466658-3.0214-4.99326-6.933317-2.003665-11.131472 2.862378-3.975526 7.855639-5.056869 11.226884-2.735162 9.382241 6.424449 17.810355 7.314967 27.288008 0.095413 3.148616-2.41712 9.00059-2.130882 11.099668 2.321707 1.876448 4.039134 2.226294 9.191415-2.448924 12.658073-6.360841 4.738827-13.357766 8.078268-20.354691 9.668479z" fill="#E4E4E3" p-id="5617"></path><path d="M428.529863 604.979594c-20.4183 16.124732-44.112433 15.838494-67.774762 12.117403-58.646955-9.286828-100.437681-51.395596-110.583222-110.169768-2.862378-12.976116 6.488058-9.445849 12.530857-8.650744 27.542442 3.657484 52.731372 14.152871 76.679939 27.82868 30.881883 17.61953 56.388856 42.140572 82.754543 65.484859 3.7847 3.339442 8.141877 7.092338 6.392645 13.38957z" fill="#F5DA65" p-id="5618"></path><path d="M428.529863 604.979594c-47.261049-47.6427-96.621176-91.786937-166.558623-102.8548-5.692953-0.890518-10.431779-3.244029-11.799361 4.802435-5.915582-22.167531-4.134547-24.043979 17.905768-20.132062 49.582756 8.746156 89.083579 35.938752 125.753828 68.379042 12.244619 10.81343 24.171196 21.976706 36.956487 32.122247 10.081933 7.951051 8.491723 13.039724-2.258099 17.683138z" fill="#C9B85E" p-id="5619"></path><path d="M774.814051 500.152934c-5.279498 76.743548-91.278069 137.775818-161.120104 114.367922-7.060534-2.353511-13.803025-5.184085-19.43237-10.177346 1.303972-12.212815 12.721682-16.220145 19.877629-23.21707 36.034165-35.111843 76.012051-64.403516 125.435785-78.142932 11.481318-3.148616 23.026245-8.141877 35.23906-2.830574z" fill="#F5DA65" p-id="5620"></path><path d="M774.814051 500.152934c-52.508743 6.297233-97.034631 29.387086-135.89937 64.467124-14.788955 13.357766-29.768736 26.492903-44.653104 39.755256-4.102742-3.657484-14.407305-6.042799-4.866043-13.484983 35.302668-27.542442 65.103208-61.954592 105.939808-82.627325 21.436034-10.845234 43.571761-18.510048 66.979656-23.185266 14.343697-2.862378 17.492313 2.512532 12.499053 15.075194z" fill="#C9B95E" p-id="5621"></path></svg>